<?xml version="1.0" standalone="no"?>
<!DOCTYPE svg PUBLIC "-//W3C//DTD SVG 20010904//EN"
 "http://www.w3.org/TR/2001/REC-SVG-20010904/DTD/svg10.dtd">
<svg version="1.0" xmlns="http://www.w3.org/2000/svg"
 width="1080.000000pt" height="1080.000000pt" viewBox="0 0 1080.000000 1080.000000"
 preserveAspectRatio="xMidYMid meet">

<g transform="translate(0.000000,1080.000000) scale(0.100000,-0.100000)"
fill="#000000" stroke="none">
<path d="M4700 9759 c-289 -22 -616 -81 -746 -134 -689 -285 -1354 -777 -1839
-1360 -893 -1074 -1255 -2530 -979 -3940 231 -1181 890 -2194 1893 -2912 598
-428 1279 -704 2007 -812 302 -45 440 -53 788 -48 322 5 430 13 683 51 682
104 1375 386 1959 798 170 119 379 349 603 663 891 1249 1139 2860 666 4335
-102 316 -301 749 -478 1037 -380 617 -892 1145 -1488 1536 -691 453 -1501
728 -2311 786 -169 13 -590 12 -758 0z"/>
<path d="M2002 8676 c-387 -313 -777 -755 -1048 -1188 -395 -631 -630 -1306
-720 -2068 -22 -186 -30 -665 -15 -871 113 -1546 929 -2922 2231 -3764 1196
-773 2715 -980 4086 -555 142 44 248 84 199 76 -379 -66 -544 -84 -830 -92
-924 -28 -1864 206 -2656 662 -857 492 -1571 1248 -2013 2132 -271 542 -435
1100 -502 1712 -25 228 -30 715 -10 945 77 883 362 1699 846 2423 128 191 320
438 444 570 43 45 76 82 73 82 -3 0 -41 -29 -85 -64z"/>
</g>
</svg>
